# xmcd CD database file
#
# Track frame offsets:
#	150
#	16185
#	38540
#	66820
#	79320
#	93600
#	112077
#	145567
#	158962
#	179225
#	191012
#	214877
#
# Disc length: 3250 seconds
#
# Revision: 0
# Processed by: cddbd v1.5.2PL0 Copyright (c) Steve Scherf et al.
# Submitted via: CDex 1.70beta2
#
DISCID=a90cb00c
DTITLE=Lars Edegran - New Orleans All Stars
DYEAR=2000
DGENRE=Jazz
TTITLE0=Clarinet Marmalade
TTITLE1=Lonesome road
TTITLE2=When my dreamboat comes home
TTITLE3=Black and White Rag
TTITLE4=Slide frog slide
TTITLE5=Save your sorrow
TTITLE6=Some of these days
TTITLE7=My Maryland
TTITLE8=Oh how i miss you tonight
TTITLE9=Lassus trombone
TTITLE10=In the sweet bye and bye
TTITLE11=Panama
EXTD=YEAR: 2000
EXTT0=
EXTT1=
EXTT2=
EXTT3=
EXTT4=
EXTT5=
EXTT6=
EXTT7=
EXTT8=
EXTT9=
EXTT10=
EXTT11=
PLAYORDER=
